<?xml version="1.0" encoding="utf-8"?>
<!-- Generator: Adobe Illustrator 27.2.0, SVG Export Plug-In . SVG Version: 6.00 Build 0)  -->
<svg version="1.1" id="Layer_1" xmlns="http://www.w3.org/2000/svg" xmlns:xlink="http://www.w3.org/1999/xlink" x="0px" y="0px"
	 width="400px" height="100px" viewBox="0 0 400 100" style="enable-background:new 0 0 400 100;" xml:space="preserve">
<style type="text/css">
	.st0{fill:#FFFFFF;}
	.st1{fill:#FFCC07;}
</style>
<path class="st0" d="M136.1,63.8l0.1-6.9h-13.5V34.4c0-0.5-0.3-0.8-0.9-0.8h-8.3v29.2c0,0.7,0.6,1.1,1,1.1
	C114.4,63.8,136.1,63.8,136.1,63.8z M157.6,52.8h-6.5l1.7-4.8c0.9-2.6,1.4-5.1,1.5-5.3h0.1c0.1,0.2,0.5,2.6,1.5,5.3L157.6,52.8z
	 M161.6,63.8h10l-12.5-29.6c-0.2-0.4-0.5-0.6-1-0.6h-8.1l-12.3,30.2h9.3l1.5-4.3h11.4L161.6,63.8z M202,63.8l-11.2-16.4l11-13.9h-10
	l-9.3,11.9V34.3c0-0.5-0.3-0.8-0.8-0.8h-8.4v30.2h9.2V50.7l8.8,13.1H202z M233.6,63.9l-11.2-16.4l11-13.9h-10L214,45.5V34.4
	c0-0.5-0.3-0.8-0.8-0.8h-8.4v30.2h9.2V50.7l8.8,13.1H233.6z M254.7,52.8h-6.5l1.7-4.8c0.9-2.6,1.5-5.1,1.5-5.3h0.1
	c0,0.2,0.5,2.6,1.5,5.3L254.7,52.8z M258.7,63.9h10l-12.5-29.6c-0.2-0.4-0.5-0.6-1-0.6h-8.1L235,63.9h9.3l1.5-4.3h11.4L258.7,63.9z
	 M291.1,43.8c0,2.8-1.7,4-4.9,4H280V40h6.2C289.1,40,291.1,41.1,291.1,43.8 M299.4,43.7c0-7-4.8-10.2-12.2-10.2h-16.4v30.2h9.2v-9.6
	h7.2C295.5,54.2,299.4,50.8,299.4,43.7 M310.7,29.4c0-1.8-1.6-3.3-3.5-3.3s-3.5,1.5-3.5,3.3c0,1.8,1.6,3.3,3.5,3.3
	C309.1,32.7,310.7,31.2,310.7,29.4 M322.7,29.4c0-1.8-1.6-3.3-3.5-3.3c-2,0-3.5,1.5-3.5,3.3c0,1.8,1.6,3.3,3.5,3.3
	C321.1,32.7,322.7,31.2,322.7,29.4 M315.9,53.2h-6.5l1.7-4.8c0.9-2.6,1.5-5.1,1.5-5.3h0.1c0,0.2,0.5,2.6,1.5,5.3L315.9,53.2z
	 M343.1,53.2l1.7-4.8c0.9-2.6,1.5-5.1,1.5-5.3h0.1c0,0.2,0.5,2.6,1.5,5.3l1.7,4.8H343.1z M342.1,34l-12.2,30l-12.4-29.4
	c-0.2-0.4-0.5-0.6-1-0.6h-8.1l-12.3,30.2h9.3L307,60h11.4l1.5,4.3h9.9h0.2h9.1l1.5-4.3h11.4l1.5,4.3h10l-12.5-29.6
	c-0.2-0.4-0.5-0.6-1-0.6C350.2,34,342.1,34,342.1,34z M344.3,29.4c0-1.8-1.6-3.3-3.5-3.3s-3.5,1.5-3.5,3.3c0,1.8,1.6,3.3,3.5,3.3
	C342.7,32.7,344.3,31.2,344.3,29.4 M356.3,29.4c0-1.8-1.6-3.3-3.5-3.3s-3.5,1.5-3.5,3.3c0,1.8,1.6,3.3,3.5,3.3
	S356.3,31.2,356.3,29.4"/>
<path class="st1" d="M59.3,46.4l11.3-2.8l0.6-0.1c4.7-1.3,7.5-6.3,6.2-11.3c-1.3-5-6.1-8.2-10.9-7.2l-11.9,2.9L52,17.5
	c-0.7-2.5-3.1-4-5.1-3.5l19.3-4.8c12.6-3,25.4,5.3,28.8,18.6c3.3,13.2-4,26.4-16.3,29.6l-0.4,0.1l-15.2,3.8L59.3,46.4z"/>
<path class="st0" d="M98.3,74l-4-16.3l-34,8.4L48.7,20.6c-1.4-4.8-4.5-6.4-8.6-5.3l-13.7,3.4l15.8,62.5c0.8,3.2,5,5.1,7.5,4.5
	L98.3,74z"/>
<g>
	<path class="st0" d="M117,70.8v10.5h5.2v1.6h-7V70.8L117,70.8L117,70.8z"/>
	<path class="st0" d="M122.4,82.9l4.1-12.1h2.2l4,12.1h-1.9L130,80h-4.7l-1,2.9H122.4z M125.8,78.6h3.8l-1.9-5.7L125.8,78.6z"/>
	<path class="st0" d="M134.7,70.8h1.8v12.1h-1.8V70.8z M141.7,70.8h2.5l-7.8,8.1v-2.5L141.7,70.8z M138.5,75.9l5.9,7h-2.4l-4.9-5.9
		L138.5,75.9z"/>
	<path class="st0" d="M146.1,70.8h1.8v12.1h-1.8V70.8z M153.1,70.8h2.5l-7.8,8.1v-2.5L153.1,70.8z M150,75.9l5.9,7h-2.4l-4.9-5.9
		L150,75.9z"/>
	<path class="st0" d="M156.2,82.9l4.1-12.1h2.2l4,12.1h-1.9l-0.9-2.9h-4.7l-1,2.9H156.2z M159.5,78.6h3.8l-1.9-5.7L159.5,78.6z"/>
	<path class="st0" d="M168.4,82.9V70.8h4.1c1.4,0,2.4,0.3,3.1,1c0.7,0.7,1.1,1.6,1.1,2.8c0,1.2-0.4,2.1-1.1,2.8
		c-0.7,0.7-1.8,1-3.1,1h-2.2v4.6C170.2,82.9,168.4,82.9,168.4,82.9z M170.2,76.8h2.2c0.8,0,1.4-0.2,1.8-0.6s0.6-0.9,0.6-1.6
		c0-0.7-0.2-1.2-0.6-1.6c-0.4-0.4-1-0.6-1.8-0.6h-2.2V76.8z"/>
	<path class="st0" d="M176.5,82.9l4.1-12.1h2.2l4,12.1H185l-0.9-2.9h-4.7l-1,2.9H176.5z M179.9,78.6h3.8l-1.9-5.7L179.9,78.6z"/>
	<path class="st0" d="M187.4,82.9l4.1-12.1h2.2l4,12.1h-1.9l-0.9-2.9h-4.7l-1,2.9H187.4z M190.7,78.6h3.8l-1.9-5.7L190.7,78.6z"/>
	<path class="st0" d="M198.3,81.9c0-0.3,0.1-0.7,0.4-0.9c0.2-0.2,0.6-0.4,0.9-0.4s0.7,0.1,0.9,0.4s0.4,0.6,0.4,0.9s-0.1,0.6-0.4,0.9
		s-0.6,0.4-0.9,0.4s-0.7-0.1-0.9-0.4C198.4,82.5,198.3,82.2,198.3,81.9z"/>
	<path class="st0" d="M207.1,83.2c-1.1,0-2-0.3-2.8-0.8s-1.4-1.3-1.8-2.2s-0.6-2.1-0.6-3.4c0-1.4,0.2-2.5,0.7-3.4
		c0.4-0.9,1.1-1.6,1.9-2.1c0.8-0.5,1.7-0.7,2.7-0.7c1.3,0,2.4,0.3,3.2,1c0.8,0.7,1.3,1.5,1.6,2.6l-1.9,0.4c-0.2-0.7-0.6-1.3-1.1-1.7
		c-0.5-0.4-1.1-0.6-1.8-0.6c-0.6,0-1.1,0.2-1.6,0.5c-0.5,0.3-0.9,0.8-1.2,1.5s-0.4,1.5-0.4,2.5c0,0.9,0.1,1.8,0.4,2.5
		c0.2,0.7,0.6,1.3,1.1,1.7s1.1,0.6,1.8,0.6c0.9,0,1.6-0.2,2.1-0.7s0.8-1.1,0.8-1.8h1.9c0,0.9-0.2,1.6-0.6,2.3
		c-0.4,0.6-0.9,1.1-1.7,1.4C208.9,83,208.1,83.2,207.1,83.2z"/>
	<path class="st0" d="M218.6,83.2c-1,0-1.9-0.2-2.8-0.7s-1.4-1.2-1.9-2.1c-0.5-0.9-0.7-2.1-0.7-3.5c0-1.4,0.2-2.6,0.7-3.5
		s1.1-1.6,1.9-2.1s1.7-0.7,2.8-0.7c1,0,2,0.2,2.8,0.7s1.4,1.2,1.9,2.1c0.5,0.9,0.7,2.1,0.7,3.5c0,1.4-0.2,2.6-0.7,3.5
		s-1.1,1.6-1.9,2.1S219.6,83.2,218.6,83.2z M218.6,81.5c1.1,0,1.9-0.4,2.6-1.2c0.6-0.8,0.9-1.9,0.9-3.5c0-1.5-0.3-2.6-0.9-3.4
		s-1.5-1.2-2.6-1.2c-1.1,0-1.9,0.4-2.5,1.2s-0.9,2-0.9,3.4c0,1.5,0.3,2.7,0.9,3.4C216.7,81.1,217.5,81.5,218.6,81.5z"/>
	<path class="st0" d="M226.3,70.8h2.6l3.8,7.9h-0.2l3.8-7.9h2.5v12.1H237V72.8h0.3l-4.1,8.7H232l-4.1-8.6h0.2v10.1h-1.8L226.3,70.8
		L226.3,70.8z"/>
	<path class="st0" d="M245.5,84.4l4.8-15.4h1.8l-4.8,15.4H245.5z"/>
	<path class="st0" d="M260.3,70.8v10.5h5.2v1.6h-7V70.8L260.3,70.8L260.3,70.8z"/>
	<path class="st0" d="M265.7,82.9l4.1-12.1h2.2l4,12.1h-1.9l-0.9-2.9h-4.7l-1,2.9H265.7z M269,78.6h3.8l-1.9-5.7L269,78.6z"/>
	<path class="st0" d="M277.9,70.8h1.8v12.1h-1.8V70.8z M284.9,70.8h2.5l-7.8,8.1v-2.5L284.9,70.8z M281.8,75.9l6,7h-2.4l-4.9-5.9
		L281.8,75.9z"/>
	<path class="st0" d="M289.4,70.8h1.8v12.1h-1.8V70.8z M296.4,70.8h2.5l-7.8,8.1v-2.5L296.4,70.8z M293.2,75.9l6,7h-2.4l-4.9-5.9
		L293.2,75.9z"/>
	<path class="st0" d="M299.4,82.9l4.1-12.1h2.2l4,12.1h-1.9L307,80h-4.7l-1,2.9H299.4z M302.8,78.6h3.8l-1.9-5.7L302.8,78.6z"/>
	<path class="st0" d="M311.6,82.9V70.8h4.1c1.4,0,2.4,0.3,3.1,1c0.7,0.7,1.1,1.6,1.1,2.8c0,1.2-0.4,2.1-1.1,2.8s-1.8,1-3.1,1h-2.2
		v4.6C313.5,82.9,311.6,82.9,311.6,82.9z M313.5,76.8h2.2c0.8,0,1.4-0.2,1.8-0.6c0.4-0.4,0.6-0.9,0.6-1.6c0-0.7-0.2-1.2-0.6-1.6
		c-0.4-0.4-1-0.6-1.8-0.6h-2.2V76.8z"/>
	<path class="st0" d="M319.8,82.9l4.1-12.1h2.2l4,12.1h-1.9l-0.9-2.9h-4.7l-1,2.9H319.8z M323.1,78.6h3.8L325,73L323.1,78.6z"/>
	<path class="st0" d="M330.6,82.9l4.1-12.1h2.2l4,12.1h-1.9l-0.9-2.9h-4.7l-1,2.9H330.6z M334,78.6h3.8l-1.9-5.7L334,78.6z"/>
	<path class="st0" d="M341.5,81.9c0-0.3,0.1-0.7,0.4-0.9c0.2-0.2,0.5-0.4,0.9-0.4s0.7,0.1,1,0.4s0.4,0.6,0.4,0.9s-0.1,0.6-0.4,0.9
		s-0.6,0.4-1,0.4s-0.7-0.1-0.9-0.4C341.7,82.5,341.5,82.2,341.5,81.9z"/>
	<path class="st0" d="M350.1,83.2c-0.8,0-1.6-0.2-2.3-0.4s-1.2-0.7-1.7-1.3c-0.4-0.6-0.6-1.3-0.7-2.2h1.8c0,0.5,0.1,1,0.4,1.3
		c0.3,0.3,0.6,0.6,1,0.8c0.4,0.2,0.9,0.2,1.4,0.2s1-0.1,1.4-0.2c0.4-0.2,0.7-0.4,0.9-0.6s0.3-0.6,0.3-0.9c0-0.5-0.1-0.8-0.4-1.1
		c-0.3-0.3-0.7-0.5-1.3-0.7l-2.2-0.8c-1-0.4-1.7-0.8-2.2-1.2s-0.8-1.1-0.8-2c0-1,0.4-1.7,1.1-2.3s1.8-0.9,3.1-0.9
		c1.3,0,2.3,0.3,3,0.9c0.7,0.6,1.1,1.4,1.2,2.4h-1.8c-0.1-0.5-0.3-0.9-0.7-1.2c-0.4-0.3-1-0.5-1.7-0.5c-0.7,0-1.3,0.2-1.7,0.5
		s-0.6,0.7-0.6,1.2c0,0.4,0.1,0.7,0.4,0.9c0.3,0.2,0.7,0.4,1.2,0.6l2.6,0.9c0.9,0.3,1.6,0.7,2.1,1.2c0.5,0.5,0.7,1.2,0.7,2
		c0,0.7-0.2,1.3-0.5,1.8c-0.4,0.5-0.9,0.9-1.6,1.2C351.9,83,351.1,83.2,350.1,83.2z"/>
	<path class="st0" d="M357.3,82.9V70.8h7.6v1.6h-5.8v3.7h5.5v1.6h-5.5v3.7h5.8v1.6L357.3,82.9L357.3,82.9z"/>
</g>
</svg>
